<svg xmlns="http://www.w3.org/2000/svg" version="1.1" xmlns:xlink="http://www.w3.org/1999/xlink" viewBox="0 0 200 200"><rect width="200" height="200" fill="url('#gradient')"></rect><defs><linearGradient id="gradient" gradientTransform="rotate(0 0.5 0.5)"><stop offset="0%" stop-color="#0a0a0a"></stop><stop offset="100%" stop-color="#0a0a0a"></stop></linearGradient></defs><g><g fill="#a855f7" transform="matrix(5.4489292667099285,0,0,5.4489292667099285,12.160212263714413,138.74126268030375)" stroke="#000000" stroke-width="0"><path d="M12.96-14.22L12.96 0L9.55 0L9.55-5.94L4.50-5.94L4.50 0L1.07 0L1.07-14.22L4.50-14.22L4.50-8.57L9.55-8.57L9.55-14.22L12.96-14.22ZM24.16-14.22L26.14-5.30L27.77-14.22L31.17-14.22L28.15 0L24.60 0L22.70-8.11L20.83 0L17.29 0L14.26-14.22L17.67-14.22L19.30-5.30L21.25-14.22L24.16-14.22Z"></path></g></g></svg>